<mxfile host="app.diagrams.net" modified="2022-09-19T18:09:02.362Z" agent="5.0 (Windows NT 10.0; Win64; x64) AppleWebKit/537.36 (KHTML, like Gecko) Chrome/105.0.0.0 Safari/537.36" etag="guq1D7FuyTnE-a--uOxS" version="20.3.2" type="github">
  <diagram name="Page-1" id="bfe91b75-5d2c-26a0-9c1d-138518896778">
    <mxGraphModel dx="2240" dy="2452" grid="1" gridSize="10" guides="1" tooltips="1" connect="1" arrows="1" fold="1" page="1" pageScale="1" pageWidth="1100" pageHeight="850" background="none" math="0" shadow="0">
      <root>
        <mxCell id="0" />
        <mxCell id="1" parent="0" />
        <mxCell id="7c3789c024ecab99-78" value="Штаб-квартира на Малой Бронной" style="rounded=1;whiteSpace=wrap;html=1;shadow=0;comic=0;strokeColor=#036897;strokeWidth=2;fillColor=none;fontFamily=Verdana;fontSize=28;fontColor=#6881B3;align=center;arcSize=11;verticalAlign=top;" parent="1" vertex="1">
          <mxGeometry x="20" y="590" width="1302.5" height="480" as="geometry" />
        </mxCell>
        <mxCell id="7c3789c024ecab99-55" style="edgeStyle=none;html=1;labelBackgroundColor=none;endArrow=none;endFill=0;strokeWidth=2;fontFamily=Verdana;fontSize=28;fontColor=#6881B3;" parent="1" source="7c3789c024ecab99-8" target="7c3789c024ecab99-54" edge="1">
          <mxGeometry relative="1" as="geometry">
            <mxPoint x="1740" y="282.0000000000002" as="targetPoint" />
          </mxGeometry>
        </mxCell>
        <mxCell id="7c3789c024ecab99-8" value="" style="fontColor=#0066CC;verticalAlign=top;verticalLabelPosition=bottom;labelPosition=center;align=center;html=1;fillColor=#CCCCCC;strokeColor=#6881B3;gradientColor=none;gradientDirection=north;strokeWidth=2;shape=mxgraph.networks.firewall;rounded=0;shadow=0;comic=0;" parent="1" vertex="1">
          <mxGeometry x="1570" y="292" width="100" height="100" as="geometry" />
        </mxCell>
        <mxCell id="7c3789c024ecab99-1" value="" style="fontColor=#0066CC;verticalAlign=top;verticalLabelPosition=bottom;labelPosition=center;align=center;html=1;fillColor=#CCCCCC;strokeColor=#6881B3;gradientColor=none;gradientDirection=north;strokeWidth=2;shape=mxgraph.networks.pc;rounded=0;shadow=0;comic=0;" parent="1" vertex="1">
          <mxGeometry x="52.500000000000284" y="887.5" width="100" height="70" as="geometry" />
        </mxCell>
        <mxCell id="7c3789c024ecab99-2" value="" style="fontColor=#0066CC;verticalAlign=top;verticalLabelPosition=bottom;labelPosition=center;align=center;html=1;fillColor=#CCCCCC;strokeColor=#6881B3;gradientColor=none;gradientDirection=north;strokeWidth=2;shape=mxgraph.networks.pc;rounded=0;shadow=0;comic=0;" parent="1" vertex="1">
          <mxGeometry x="182.50000000000028" y="887.5" width="100" height="70" as="geometry" />
        </mxCell>
        <mxCell id="7c3789c024ecab99-3" value="" style="fontColor=#0066CC;verticalAlign=top;verticalLabelPosition=bottom;labelPosition=center;align=center;html=1;fillColor=#CCCCCC;strokeColor=#6881B3;gradientColor=none;gradientDirection=north;strokeWidth=2;shape=mxgraph.networks.pc;rounded=0;shadow=0;comic=0;" parent="1" vertex="1">
          <mxGeometry x="315.0000000000003" y="887.5" width="100" height="70" as="geometry" />
        </mxCell>
        <mxCell id="7c3789c024ecab99-9" value="" style="fontColor=#0066CC;verticalAlign=top;verticalLabelPosition=bottom;labelPosition=center;align=center;html=1;fillColor=#CCCCCC;strokeColor=#6881B3;gradientColor=none;gradientDirection=north;strokeWidth=2;shape=mxgraph.networks.wireless_hub;rounded=0;shadow=0;comic=0;" parent="1" vertex="1">
          <mxGeometry x="502.5000000000002" y="649" width="100" height="85" as="geometry" />
        </mxCell>
        <mxCell id="7c3789c024ecab99-53" value="Internet" style="html=1;fillColor=#CCCCCC;strokeColor=#6881B3;gradientColor=none;gradientDirection=north;strokeWidth=2;shape=mxgraph.networks.cloud;fontColor=#6881B3;rounded=0;shadow=0;comic=0;align=center;fontSize=28;" parent="1" vertex="1">
          <mxGeometry x="1840" y="134" width="330" height="140" as="geometry" />
        </mxCell>
        <mxCell id="7c3789c024ecab99-56" style="edgeStyle=none;html=1;labelBackgroundColor=none;endArrow=none;endFill=0;strokeWidth=2;fontFamily=Verdana;fontSize=28;fontColor=#6881B3;" parent="1" source="7c3789c024ecab99-54" target="7c3789c024ecab99-53" edge="1">
          <mxGeometry relative="1" as="geometry" />
        </mxCell>
        <mxCell id="7c3789c024ecab99-54" value="" style="fontColor=#0066CC;verticalAlign=top;verticalLabelPosition=bottom;labelPosition=center;align=center;html=1;fillColor=#CCCCCC;strokeColor=#6881B3;gradientColor=none;gradientDirection=north;strokeWidth=2;shape=mxgraph.networks.router;rounded=0;shadow=0;comic=0;" parent="1" vertex="1">
          <mxGeometry x="1720" y="327" width="100" height="30" as="geometry" />
        </mxCell>
        <mxCell id="7c3789c024ecab99-59" style="edgeStyle=none;html=1;labelBackgroundColor=none;endArrow=none;endFill=0;strokeWidth=2;fontFamily=Verdana;fontSize=28;fontColor=#6881B3;" parent="1" source="7c3789c024ecab99-58" target="7c3789c024ecab99-54" edge="1">
          <mxGeometry relative="1" as="geometry">
            <mxPoint x="1650" y="272" as="targetPoint" />
          </mxGeometry>
        </mxCell>
        <mxCell id="7c3789c024ecab99-58" value="" style="fontColor=#0066CC;verticalAlign=top;verticalLabelPosition=bottom;labelPosition=center;align=center;html=1;fillColor=#CCCCCC;strokeColor=#6881B3;gradientColor=none;gradientDirection=north;strokeWidth=2;shape=mxgraph.networks.server_storage;rounded=0;shadow=0;comic=0;" parent="1" vertex="1">
          <mxGeometry x="1620" y="50" width="105" height="105" as="geometry" />
        </mxCell>
        <mxCell id="4l_jCviNUbWaywGvzGt9-1" value="Склад в городе Видное" style="rounded=1;whiteSpace=wrap;html=1;shadow=0;comic=0;strokeColor=#036897;strokeWidth=2;fillColor=none;fontFamily=Verdana;fontSize=28;fontColor=#6881B3;align=center;arcSize=11;verticalAlign=top;" parent="1" vertex="1">
          <mxGeometry x="70" y="-40" width="1065" height="550" as="geometry" />
        </mxCell>
        <mxCell id="4l_jCviNUbWaywGvzGt9-2" value="" style="fontColor=#0066CC;verticalAlign=top;verticalLabelPosition=bottom;labelPosition=center;align=center;html=1;fillColor=#CCCCCC;strokeColor=#6881B3;gradientColor=none;gradientDirection=north;strokeWidth=2;shape=mxgraph.networks.wireless_hub;rounded=0;shadow=0;comic=0;" parent="1" vertex="1">
          <mxGeometry x="550.0000000000002" y="20" width="100" height="85" as="geometry" />
        </mxCell>
        <mxCell id="4l_jCviNUbWaywGvzGt9-3" value="" style="fontColor=#0066CC;verticalAlign=top;verticalLabelPosition=bottom;labelPosition=center;align=center;html=1;outlineConnect=0;fillColor=#CCCCCC;strokeColor=#6881B3;gradientColor=none;gradientDirection=north;strokeWidth=2;shape=mxgraph.networks.security_camera;" parent="1" vertex="1">
          <mxGeometry x="740" y="370" width="100" height="75" as="geometry" />
        </mxCell>
        <mxCell id="4l_jCviNUbWaywGvzGt9-4" value="Камеры видеонаблюдения" style="rounded=1;whiteSpace=wrap;html=1;shadow=0;comic=0;strokeColor=#036897;strokeWidth=2;fillColor=none;fontFamily=Verdana;fontSize=28;fontColor=#6881B3;align=center;arcSize=11;verticalAlign=top;" parent="1" vertex="1">
          <mxGeometry x="710" y="300" width="320" height="190" as="geometry" />
        </mxCell>
        <mxCell id="4l_jCviNUbWaywGvzGt9-5" value="" style="fontColor=#0066CC;verticalAlign=top;verticalLabelPosition=bottom;labelPosition=center;align=center;html=1;outlineConnect=0;fillColor=#CCCCCC;strokeColor=#6881B3;gradientColor=none;gradientDirection=north;strokeWidth=2;shape=mxgraph.networks.security_camera;" parent="1" vertex="1">
          <mxGeometry x="890" y="370" width="100" height="75" as="geometry" />
        </mxCell>
        <mxCell id="4l_jCviNUbWaywGvzGt9-9" value="" style="endArrow=none;html=1;rounded=0;entryX=0.652;entryY=0.979;entryDx=0;entryDy=0;entryPerimeter=0;exitX=0.5;exitY=0;exitDx=0;exitDy=0;" parent="1" source="4l_jCviNUbWaywGvzGt9-4" target="4l_jCviNUbWaywGvzGt9-2" edge="1">
          <mxGeometry width="50" height="50" relative="1" as="geometry">
            <mxPoint x="420" y="620" as="sourcePoint" />
            <mxPoint x="470" y="570" as="targetPoint" />
          </mxGeometry>
        </mxCell>
        <mxCell id="4l_jCviNUbWaywGvzGt9-10" value="" style="fontColor=#0066CC;verticalAlign=top;verticalLabelPosition=bottom;labelPosition=center;align=center;html=1;fillColor=#CCCCCC;strokeColor=#6881B3;gradientColor=none;gradientDirection=north;strokeWidth=2;shape=mxgraph.networks.pc;rounded=0;shadow=0;comic=0;" parent="1" vertex="1">
          <mxGeometry x="152.50000000000028" y="222" width="100" height="70" as="geometry" />
        </mxCell>
        <mxCell id="4l_jCviNUbWaywGvzGt9-12" value="" style="fontColor=#0066CC;verticalAlign=top;verticalLabelPosition=bottom;labelPosition=center;align=center;html=1;fillColor=#CCCCCC;strokeColor=#6881B3;gradientColor=none;gradientDirection=north;strokeWidth=2;shape=mxgraph.networks.pc;rounded=0;shadow=0;comic=0;" parent="1" vertex="1">
          <mxGeometry x="450.0000000000003" y="230" width="100" height="70" as="geometry" />
        </mxCell>
        <mxCell id="4l_jCviNUbWaywGvzGt9-13" value="" style="fontColor=#0066CC;verticalAlign=top;verticalLabelPosition=bottom;labelPosition=center;align=center;html=1;fillColor=#CCCCCC;strokeColor=#6881B3;gradientColor=none;gradientDirection=north;strokeWidth=2;shape=mxgraph.networks.pc;rounded=0;shadow=0;comic=0;" parent="1" vertex="1">
          <mxGeometry x="152.50000000000028" y="380" width="100" height="70" as="geometry" />
        </mxCell>
        <mxCell id="4l_jCviNUbWaywGvzGt9-14" value="ПК с ПО для обслуживания склада, слежения за поставками и тд." style="rounded=1;whiteSpace=wrap;html=1;shadow=0;comic=0;strokeColor=#036897;strokeWidth=2;fillColor=none;fontFamily=Verdana;fontSize=28;fontColor=#6881B3;align=center;arcSize=11;verticalAlign=top;" parent="1" vertex="1">
          <mxGeometry x="80" y="140" width="600" height="360" as="geometry" />
        </mxCell>
        <mxCell id="4l_jCviNUbWaywGvzGt9-15" value="" style="fontColor=#0066CC;verticalAlign=top;verticalLabelPosition=bottom;labelPosition=center;align=center;html=1;fillColor=#CCCCCC;strokeColor=#6881B3;gradientColor=none;gradientDirection=north;strokeWidth=2;shape=mxgraph.networks.pc;rounded=0;shadow=0;comic=0;" parent="1" vertex="1">
          <mxGeometry x="450.0000000000002" y="370" width="100" height="70" as="geometry" />
        </mxCell>
        <mxCell id="4l_jCviNUbWaywGvzGt9-16" value="" style="endArrow=none;html=1;rounded=0;entryX=0.5;entryY=0;entryDx=0;entryDy=0;exitX=0.02;exitY=0.94;exitDx=0;exitDy=0;exitPerimeter=0;" parent="1" source="4l_jCviNUbWaywGvzGt9-2" target="4l_jCviNUbWaywGvzGt9-14" edge="1">
          <mxGeometry width="50" height="50" relative="1" as="geometry">
            <mxPoint x="540" y="246.79" as="sourcePoint" />
            <mxPoint x="295.1999999999998" y="170.0049999999999" as="targetPoint" />
          </mxGeometry>
        </mxCell>
        <mxCell id="4l_jCviNUbWaywGvzGt9-17" value="" style="fontColor=#0066CC;verticalAlign=top;verticalLabelPosition=bottom;labelPosition=center;align=center;html=1;outlineConnect=0;fillColor=#CCCCCC;strokeColor=#6881B3;gradientColor=none;gradientDirection=north;strokeWidth=2;shape=mxgraph.networks.phone_2;" parent="1" vertex="1">
          <mxGeometry x="810" y="137.5" width="100" height="90" as="geometry" />
        </mxCell>
        <mxCell id="4l_jCviNUbWaywGvzGt9-18" value="" style="fontColor=#0066CC;verticalAlign=top;verticalLabelPosition=bottom;labelPosition=center;align=center;html=1;outlineConnect=0;fillColor=#CCCCCC;strokeColor=#6881B3;gradientColor=none;gradientDirection=north;strokeWidth=2;shape=mxgraph.networks.phone_2;" parent="1" vertex="1">
          <mxGeometry x="970" y="140" width="100" height="90" as="geometry" />
        </mxCell>
        <mxCell id="4l_jCviNUbWaywGvzGt9-19" value="IP-телефония" style="rounded=1;whiteSpace=wrap;html=1;shadow=0;comic=0;strokeColor=#036897;strokeWidth=2;fillColor=none;fontFamily=Verdana;fontSize=28;fontColor=#6881B3;align=center;arcSize=11;verticalAlign=top;" parent="1" vertex="1">
          <mxGeometry x="780" y="100" width="320" height="170" as="geometry" />
        </mxCell>
        <mxCell id="4l_jCviNUbWaywGvzGt9-20" value="" style="endArrow=none;html=1;rounded=0;exitX=0;exitY=0.5;exitDx=0;exitDy=0;entryX=0.843;entryY=0.892;entryDx=0;entryDy=0;entryPerimeter=0;" parent="1" source="4l_jCviNUbWaywGvzGt9-19" edge="1" target="4l_jCviNUbWaywGvzGt9-2">
          <mxGeometry width="50" height="50" relative="1" as="geometry">
            <mxPoint x="904.8" y="286.79" as="sourcePoint" />
            <mxPoint x="660" y="210" as="targetPoint" />
          </mxGeometry>
        </mxCell>
        <mxCell id="4l_jCviNUbWaywGvzGt9-21" value="IP-телефония" style="rounded=1;whiteSpace=wrap;html=1;shadow=0;comic=0;strokeColor=#036897;strokeWidth=2;fillColor=none;fontFamily=Verdana;fontSize=28;fontColor=#6881B3;align=center;arcSize=11;verticalAlign=top;" parent="1" vertex="1">
          <mxGeometry x="952.5" y="610" width="320" height="170" as="geometry" />
        </mxCell>
        <mxCell id="4l_jCviNUbWaywGvzGt9-24" value="" style="fontColor=#0066CC;verticalAlign=top;verticalLabelPosition=bottom;labelPosition=center;align=center;html=1;outlineConnect=0;fillColor=#CCCCCC;strokeColor=#6881B3;gradientColor=none;gradientDirection=north;strokeWidth=2;shape=mxgraph.networks.phone_2;" parent="1" vertex="1">
          <mxGeometry x="980" y="650" width="100" height="90" as="geometry" />
        </mxCell>
        <mxCell id="4l_jCviNUbWaywGvzGt9-25" value="" style="fontColor=#0066CC;verticalAlign=top;verticalLabelPosition=bottom;labelPosition=center;align=center;html=1;outlineConnect=0;fillColor=#CCCCCC;strokeColor=#6881B3;gradientColor=none;gradientDirection=north;strokeWidth=2;shape=mxgraph.networks.phone_2;" parent="1" vertex="1">
          <mxGeometry x="1152.5" y="650" width="100" height="90" as="geometry" />
        </mxCell>
        <mxCell id="4l_jCviNUbWaywGvzGt9-26" value="ПК для персонала ответственного по работе с клиентами и поставщиками" style="rounded=1;whiteSpace=wrap;html=1;shadow=0;comic=0;strokeColor=#036897;strokeWidth=2;fillColor=none;fontFamily=Verdana;fontSize=28;fontColor=#6881B3;align=center;arcSize=11;verticalAlign=top;" parent="1" vertex="1">
          <mxGeometry x="27.5" y="800" width="575" height="240" as="geometry" />
        </mxCell>
        <mxCell id="4l_jCviNUbWaywGvzGt9-27" value="" style="fontColor=#0066CC;verticalAlign=top;verticalLabelPosition=bottom;labelPosition=center;align=center;html=1;fillColor=#CCCCCC;strokeColor=#6881B3;gradientColor=none;gradientDirection=north;strokeWidth=2;shape=mxgraph.networks.pc;rounded=0;shadow=0;comic=0;" parent="1" vertex="1">
          <mxGeometry x="452.5000000000002" y="887.5" width="100" height="70" as="geometry" />
        </mxCell>
        <mxCell id="4l_jCviNUbWaywGvzGt9-28" value="" style="endArrow=none;html=1;rounded=0;exitX=0.5;exitY=0;exitDx=0;exitDy=0;entryX=0.02;entryY=0.94;entryDx=0;entryDy=0;entryPerimeter=0;" parent="1" source="4l_jCviNUbWaywGvzGt9-26" target="7c3789c024ecab99-9" edge="1">
          <mxGeometry width="50" height="50" relative="1" as="geometry">
            <mxPoint x="632.5" y="780" as="sourcePoint" />
            <mxPoint x="682.5" y="730" as="targetPoint" />
          </mxGeometry>
        </mxCell>
        <mxCell id="4l_jCviNUbWaywGvzGt9-29" value="" style="fontColor=#0066CC;verticalAlign=top;verticalLabelPosition=bottom;labelPosition=center;align=center;html=1;outlineConnect=0;fillColor=#CCCCCC;strokeColor=#6881B3;gradientColor=none;gradientDirection=north;strokeWidth=2;shape=mxgraph.networks.video_projector;" parent="1" vertex="1">
          <mxGeometry x="742.5" y="922.5" width="100" height="35" as="geometry" />
        </mxCell>
        <mxCell id="4l_jCviNUbWaywGvzGt9-30" value="" style="fontColor=#0066CC;verticalAlign=top;verticalLabelPosition=bottom;labelPosition=center;align=center;html=1;outlineConnect=0;fillColor=#CCCCCC;strokeColor=#6881B3;gradientColor=none;gradientDirection=north;strokeWidth=2;shape=mxgraph.networks.tablet;" parent="1" vertex="1">
          <mxGeometry x="922.5" y="905" width="100" height="70" as="geometry" />
        </mxCell>
        <mxCell id="4l_jCviNUbWaywGvzGt9-31" value="" style="fontColor=#0066CC;verticalAlign=top;verticalLabelPosition=bottom;labelPosition=center;align=center;html=1;outlineConnect=0;fillColor=#CCCCCC;strokeColor=#6881B3;gradientColor=none;gradientDirection=north;strokeWidth=2;shape=mxgraph.networks.phone_2;" parent="1" vertex="1">
          <mxGeometry x="1102.5" y="895" width="100" height="90" as="geometry" />
        </mxCell>
        <mxCell id="4l_jCviNUbWaywGvzGt9-32" value="Оборудование для онлайн-конференций и презентации проектов" style="rounded=1;whiteSpace=wrap;html=1;shadow=0;comic=0;strokeColor=#036897;strokeWidth=2;fillColor=none;fontFamily=Verdana;fontSize=28;fontColor=#6881B3;align=center;arcSize=11;verticalAlign=top;" parent="1" vertex="1">
          <mxGeometry x="712.5" y="793" width="550" height="204" as="geometry" />
        </mxCell>
        <mxCell id="4l_jCviNUbWaywGvzGt9-34" value="" style="endArrow=none;html=1;rounded=0;exitX=0.8;exitY=0.939;exitDx=0;exitDy=0;entryX=0.476;entryY=0.007;entryDx=0;entryDy=0;entryPerimeter=0;exitPerimeter=0;" parent="1" source="7c3789c024ecab99-9" target="4l_jCviNUbWaywGvzGt9-32" edge="1">
          <mxGeometry width="50" height="50" relative="1" as="geometry">
            <mxPoint x="633" y="807" as="sourcePoint" />
            <mxPoint x="822.5" y="735.9000000000001" as="targetPoint" />
          </mxGeometry>
        </mxCell>
        <mxCell id="4l_jCviNUbWaywGvzGt9-35" value="" style="fontColor=#0066CC;verticalAlign=top;verticalLabelPosition=bottom;labelPosition=center;align=center;html=1;fillColor=#CCCCCC;strokeColor=#6881B3;gradientColor=none;gradientDirection=north;strokeWidth=2;shape=mxgraph.networks.router;rounded=0;shadow=0;comic=0;" parent="1" vertex="1">
          <mxGeometry x="1380" y="430" width="100" height="30" as="geometry" />
        </mxCell>
        <mxCell id="4l_jCviNUbWaywGvzGt9-40" value="Корпоративный сервер и по совместителству хранилище данных" style="rounded=1;whiteSpace=wrap;html=1;shadow=0;comic=0;strokeColor=#036897;strokeWidth=2;fillColor=none;fontFamily=Verdana;fontSize=28;fontColor=#6881B3;align=center;arcSize=11;verticalAlign=top;" parent="1" vertex="1">
          <mxGeometry x="1430" y="-70" width="480" height="240" as="geometry" />
        </mxCell>
        <mxCell id="4l_jCviNUbWaywGvzGt9-41" style="edgeStyle=none;html=1;labelBackgroundColor=none;endArrow=none;endFill=0;strokeWidth=2;fontFamily=Verdana;fontSize=28;fontColor=#6881B3;exitX=1;exitY=0.5;exitDx=0;exitDy=0;entryX=0.5;entryY=1;entryDx=0;entryDy=0;entryPerimeter=0;" parent="1" source="7c3789c024ecab99-78" target="4l_jCviNUbWaywGvzGt9-35" edge="1">
          <mxGeometry relative="1" as="geometry">
            <mxPoint x="1370.0034782608695" y="800" as="sourcePoint" />
            <mxPoint x="1460.257101449275" y="747" as="targetPoint" />
          </mxGeometry>
        </mxCell>
        <mxCell id="4l_jCviNUbWaywGvzGt9-42" style="edgeStyle=none;html=1;labelBackgroundColor=none;endArrow=none;endFill=0;strokeWidth=2;fontFamily=Verdana;fontSize=28;fontColor=#6881B3;exitX=1;exitY=0.5;exitDx=0;exitDy=0;entryX=0;entryY=0.5;entryDx=0;entryDy=0;entryPerimeter=0;" parent="1" source="4l_jCviNUbWaywGvzGt9-1" target="4l_jCviNUbWaywGvzGt9-35" edge="1">
          <mxGeometry relative="1" as="geometry">
            <mxPoint x="1230" y="410" as="sourcePoint" />
            <mxPoint x="1337.5" y="70" as="targetPoint" />
          </mxGeometry>
        </mxCell>
        <mxCell id="4l_jCviNUbWaywGvzGt9-43" style="edgeStyle=none;html=1;labelBackgroundColor=none;endArrow=none;endFill=0;strokeWidth=2;fontFamily=Verdana;fontSize=28;fontColor=#6881B3;exitX=0.95;exitY=0.05;exitDx=0;exitDy=0;entryX=0;entryY=0.5;entryDx=0;entryDy=0;entryPerimeter=0;exitPerimeter=0;" parent="1" source="4l_jCviNUbWaywGvzGt9-35" target="7c3789c024ecab99-8" edge="1">
          <mxGeometry relative="1" as="geometry">
            <mxPoint x="1430" y="785" as="sourcePoint" />
            <mxPoint x="1537.5" y="445" as="targetPoint" />
          </mxGeometry>
        </mxCell>
        <mxCell id="4l_jCviNUbWaywGvzGt9-44" value="" style="endArrow=none;html=1;rounded=0;exitX=1;exitY=0.7;exitDx=0;exitDy=0;entryX=0;entryY=0.5;entryDx=0;entryDy=0;exitPerimeter=0;" parent="1" source="7c3789c024ecab99-9" target="4l_jCviNUbWaywGvzGt9-21" edge="1">
          <mxGeometry width="50" height="50" relative="1" as="geometry">
            <mxPoint x="602.5" y="662.195" as="sourcePoint" />
            <mxPoint x="994.3000000000002" y="727.8079999999999" as="targetPoint" />
          </mxGeometry>
        </mxCell>
        <mxCell id="4l_jCviNUbWaywGvzGt9-45" value="" style="dashed=0;outlineConnect=0;html=1;align=center;labelPosition=center;verticalLabelPosition=bottom;verticalAlign=top;shape=mxgraph.webicons.chrome;gradientColor=#DFDEDE" parent="1" vertex="1">
          <mxGeometry x="1830" y="450" width="103.2" height="104" as="geometry" />
        </mxCell>
        <mxCell id="4l_jCviNUbWaywGvzGt9-46" value="Веб-сайт" style="rounded=1;whiteSpace=wrap;html=1;shadow=0;comic=0;strokeColor=#036897;strokeWidth=2;fillColor=none;fontFamily=Verdana;fontSize=28;fontColor=#6881B3;align=center;arcSize=11;verticalAlign=top;" parent="1" vertex="1">
          <mxGeometry x="1810" y="420" width="150" height="140" as="geometry" />
        </mxCell>
        <mxCell id="4l_jCviNUbWaywGvzGt9-47" style="edgeStyle=none;html=1;labelBackgroundColor=none;endArrow=none;endFill=0;strokeWidth=2;fontFamily=Verdana;fontSize=28;fontColor=#6881B3;exitX=0.5;exitY=0;exitDx=0;exitDy=0;" parent="1" source="4l_jCviNUbWaywGvzGt9-46" target="7c3789c024ecab99-53" edge="1">
          <mxGeometry relative="1" as="geometry">
            <mxPoint x="1910" y="620" as="sourcePoint" />
            <mxPoint x="2017.5" y="280" as="targetPoint" />
          </mxGeometry>
        </mxCell>
        <mxCell id="cG-o44o9GR63i4Ds4Bp5-4" value="&lt;font style=&quot;font-size: 24px;&quot;&gt;IPCAM_01&lt;/font&gt;" style="text;html=1;strokeColor=none;fillColor=none;align=center;verticalAlign=middle;whiteSpace=wrap;rounded=0;" vertex="1" parent="1">
          <mxGeometry x="730" y="445" width="100" height="50" as="geometry" />
        </mxCell>
        <mxCell id="cG-o44o9GR63i4Ds4Bp5-5" value="&lt;font style=&quot;font-size: 24px;&quot;&gt;IPCAM_50&lt;/font&gt;" style="text;html=1;strokeColor=none;fillColor=none;align=center;verticalAlign=middle;whiteSpace=wrap;rounded=0;" vertex="1" parent="1">
          <mxGeometry x="890" y="445" width="100" height="50" as="geometry" />
        </mxCell>
        <mxCell id="cG-o44o9GR63i4Ds4Bp5-6" value="&lt;font style=&quot;font-size: 24px;&quot;&gt;...&lt;/font&gt;" style="text;html=1;strokeColor=none;fillColor=none;align=center;verticalAlign=middle;whiteSpace=wrap;rounded=0;" vertex="1" parent="1">
          <mxGeometry x="810" y="445" width="100" height="50" as="geometry" />
        </mxCell>
        <mxCell id="cG-o44o9GR63i4Ds4Bp5-7" value="&lt;font style=&quot;font-size: 24px;&quot;&gt;VIDNOE_COMP_01&lt;/font&gt;" style="text;html=1;strokeColor=none;fillColor=none;align=center;verticalAlign=middle;whiteSpace=wrap;rounded=0;" vertex="1" parent="1">
          <mxGeometry x="170" y="317" width="100" height="50" as="geometry" />
        </mxCell>
        <mxCell id="cG-o44o9GR63i4Ds4Bp5-8" value="&lt;font style=&quot;font-size: 24px;&quot;&gt;VIDNOE_COMP_02&lt;/font&gt;" style="text;html=1;strokeColor=none;fillColor=none;align=center;verticalAlign=middle;whiteSpace=wrap;rounded=0;" vertex="1" parent="1">
          <mxGeometry x="460" y="307" width="100" height="50" as="geometry" />
        </mxCell>
        <mxCell id="cG-o44o9GR63i4Ds4Bp5-9" value="&lt;span style=&quot;font-size: 24px;&quot;&gt;...&lt;/span&gt;" style="text;html=1;strokeColor=none;fillColor=none;align=center;verticalAlign=middle;whiteSpace=wrap;rounded=0;" vertex="1" parent="1">
          <mxGeometry x="160" y="450" width="100" height="50" as="geometry" />
        </mxCell>
        <mxCell id="cG-o44o9GR63i4Ds4Bp5-10" value="&lt;font style=&quot;font-size: 24px;&quot;&gt;VIDNOE_COMP_50&lt;/font&gt;" style="text;html=1;strokeColor=none;fillColor=none;align=center;verticalAlign=middle;whiteSpace=wrap;rounded=0;" vertex="1" parent="1">
          <mxGeometry x="452.5" y="450" width="100" height="50" as="geometry" />
        </mxCell>
        <mxCell id="cG-o44o9GR63i4Ds4Bp5-11" value="&lt;font style=&quot;font-size: 24px;&quot;&gt;IPTEL_01&lt;/font&gt;" style="text;html=1;strokeColor=none;fillColor=none;align=center;verticalAlign=middle;whiteSpace=wrap;rounded=0;" vertex="1" parent="1">
          <mxGeometry x="800" y="224" width="100" height="50" as="geometry" />
        </mxCell>
        <mxCell id="cG-o44o9GR63i4Ds4Bp5-12" value="&lt;font style=&quot;font-size: 24px;&quot;&gt;IPTEL_50&lt;/font&gt;" style="text;html=1;strokeColor=none;fillColor=none;align=center;verticalAlign=middle;whiteSpace=wrap;rounded=0;" vertex="1" parent="1">
          <mxGeometry x="970" y="224" width="100" height="50" as="geometry" />
        </mxCell>
        <mxCell id="cG-o44o9GR63i4Ds4Bp5-13" value="&lt;span style=&quot;font-size: 24px;&quot;&gt;...&lt;/span&gt;" style="text;html=1;strokeColor=none;fillColor=none;align=center;verticalAlign=middle;whiteSpace=wrap;rounded=0;" vertex="1" parent="1">
          <mxGeometry x="880" y="227.5" width="100" height="50" as="geometry" />
        </mxCell>
        <mxCell id="cG-o44o9GR63i4Ds4Bp5-14" value="&lt;font style=&quot;font-size: 24px;&quot;&gt;IPTEL_01&lt;/font&gt;" style="text;html=1;strokeColor=none;fillColor=none;align=center;verticalAlign=middle;whiteSpace=wrap;rounded=0;" vertex="1" parent="1">
          <mxGeometry x="980" y="734" width="100" height="50" as="geometry" />
        </mxCell>
        <mxCell id="cG-o44o9GR63i4Ds4Bp5-15" value="&lt;font style=&quot;font-size: 24px;&quot;&gt;IPTEL_50&lt;/font&gt;" style="text;html=1;strokeColor=none;fillColor=none;align=center;verticalAlign=middle;whiteSpace=wrap;rounded=0;" vertex="1" parent="1">
          <mxGeometry x="1150" y="734" width="100" height="50" as="geometry" />
        </mxCell>
        <mxCell id="cG-o44o9GR63i4Ds4Bp5-16" value="&lt;span style=&quot;font-size: 24px;&quot;&gt;...&lt;/span&gt;" style="text;html=1;strokeColor=none;fillColor=none;align=center;verticalAlign=middle;whiteSpace=wrap;rounded=0;" vertex="1" parent="1">
          <mxGeometry x="1060" y="737.5" width="100" height="50" as="geometry" />
        </mxCell>
        <mxCell id="cG-o44o9GR63i4Ds4Bp5-17" value="&lt;font style=&quot;font-size: 24px;&quot;&gt;COMP_01&lt;/font&gt;" style="text;html=1;strokeColor=none;fillColor=none;align=center;verticalAlign=middle;whiteSpace=wrap;rounded=0;" vertex="1" parent="1">
          <mxGeometry x="52.5" y="970" width="100" height="50" as="geometry" />
        </mxCell>
        <mxCell id="cG-o44o9GR63i4Ds4Bp5-18" value="&lt;font style=&quot;font-size: 24px;&quot;&gt;COMP_02&lt;/font&gt;" style="text;html=1;strokeColor=none;fillColor=none;align=center;verticalAlign=middle;whiteSpace=wrap;rounded=0;" vertex="1" parent="1">
          <mxGeometry x="190" y="970" width="100" height="50" as="geometry" />
        </mxCell>
        <mxCell id="cG-o44o9GR63i4Ds4Bp5-19" value="&lt;span style=&quot;font-size: 24px;&quot;&gt;...&lt;/span&gt;" style="text;html=1;strokeColor=none;fillColor=none;align=center;verticalAlign=middle;whiteSpace=wrap;rounded=0;" vertex="1" parent="1">
          <mxGeometry x="320" y="970" width="100" height="50" as="geometry" />
        </mxCell>
        <mxCell id="cG-o44o9GR63i4Ds4Bp5-20" value="&lt;font style=&quot;font-size: 24px;&quot;&gt;COMP_30&lt;/font&gt;" style="text;html=1;strokeColor=none;fillColor=none;align=center;verticalAlign=middle;whiteSpace=wrap;rounded=0;" vertex="1" parent="1">
          <mxGeometry x="450" y="970" width="100" height="50" as="geometry" />
        </mxCell>
        <mxCell id="cG-o44o9GR63i4Ds4Bp5-21" value="&lt;font style=&quot;font-size: 24px;&quot;&gt;Firewall&lt;/font&gt;" style="text;html=1;strokeColor=none;fillColor=none;align=center;verticalAlign=middle;whiteSpace=wrap;rounded=0;" vertex="1" parent="1">
          <mxGeometry x="1570" y="410" width="100" height="50" as="geometry" />
        </mxCell>
        <mxCell id="cG-o44o9GR63i4Ds4Bp5-22" value="&lt;font style=&quot;font-size: 24px;&quot;&gt;Маршрутизатор&lt;/font&gt;" style="text;html=1;strokeColor=none;fillColor=none;align=center;verticalAlign=middle;whiteSpace=wrap;rounded=0;" vertex="1" parent="1">
          <mxGeometry x="1370" y="367" width="100" height="50" as="geometry" />
        </mxCell>
        <mxCell id="cG-o44o9GR63i4Ds4Bp5-23" value="&lt;font style=&quot;font-size: 24px;&quot;&gt;Маршрутизатор&lt;/font&gt;" style="text;html=1;strokeColor=none;fillColor=none;align=center;verticalAlign=middle;whiteSpace=wrap;rounded=0;" vertex="1" parent="1">
          <mxGeometry x="1730" y="357" width="100" height="50" as="geometry" />
        </mxCell>
        <mxCell id="cG-o44o9GR63i4Ds4Bp5-24" value="&lt;font style=&quot;font-size: 24px;&quot;&gt;Интернет&lt;/font&gt;" style="text;html=1;strokeColor=none;fillColor=none;align=center;verticalAlign=middle;whiteSpace=wrap;rounded=0;" vertex="1" parent="1">
          <mxGeometry x="1980" y="84" width="100" height="50" as="geometry" />
        </mxCell>
      </root>
    </mxGraphModel>
  </diagram>
</mxfile>
